<svg width="16" height="16" viewBox="0 0 16 16" fill="none" xmlns="http://www.w3.org/2000/svg">
<g clip-path="url(#clip0_2059_15920)">
<path d="M13.5996 6C14.9251 6 16 7.07491 16 8.40039V9.7998C16 10.4625 15.4625 11 14.7998 11H14V14.7998C14 15.4625 13.4625 16 12.7998 16H3.2002C2.53745 16 2 15.4625 2 14.7998V11H1.2002C0.537454 11 0 10.4625 0 9.7998V8.40039C0 7.07491 1.07491 6 2.40039 6H13.5996ZM4 14H7V12.9492H5.03027V8H4V14ZM10.4199 8C10.1037 8 9.8308 8.05495 9.60156 8.16406C9.37443 8.27315 9.17574 8.41027 9.00586 8.5752L9.42969 9.4248C9.49884 9.36362 9.57905 9.30115 9.66992 9.2373C9.76081 9.1708 9.86297 9.11554 9.97559 9.07031C10.0901 9.02246 10.2163 8.99808 10.3545 8.99805C10.5758 8.99805 10.7342 9.05673 10.8291 9.17383C10.9239 9.29092 10.9717 9.45363 10.9717 9.66113C10.9716 9.81243 10.9457 9.94786 10.8945 10.0674C10.8451 10.1845 10.7497 10.2785 10.6094 10.3477C10.471 10.4141 10.2685 10.4473 10.002 10.4473H9.66699V11.3936H9.99609C10.2668 11.3936 10.4777 11.4229 10.6279 11.4814C10.7797 11.5399 10.886 11.6248 10.9473 11.7363C11.0085 11.848 11.039 11.9852 11.0391 12.1475C11.0391 12.4241 10.9731 12.6396 10.8408 12.7939C10.7104 12.9456 10.4813 13.0215 10.1533 13.0215C9.97743 13.0215 9.78754 12.9897 9.58398 12.9258C9.38048 12.8593 9.18573 12.7625 9 12.6348V13.6846C9.18181 13.791 9.37553 13.8694 9.58105 13.9199C9.78856 13.9731 10.0119 14 10.251 14C10.6561 14 10.9872 13.9229 11.2441 13.7686C11.5011 13.6142 11.6909 13.4026 11.8135 13.1338C11.9379 12.865 12 12.5603 12 12.2197C12 11.8367 11.9092 11.5306 11.7275 11.3018C11.5477 11.0729 11.2834 10.9287 10.9355 10.8701V10.8467C11.1114 10.7882 11.2699 10.6963 11.4102 10.5713C11.5524 10.4462 11.665 10.2848 11.748 10.0879C11.831 9.89106 11.872 9.65826 11.8721 9.38965C11.8721 8.94793 11.7422 8.60546 11.4814 8.36328C11.2206 8.1211 10.8666 8 10.4199 8Z" fill="#232323"/>
<path d="M11.3281 0H4.67191C4.01621 0 3.79694 0.608058 4.20919 0.96368L7.53728 3.83466C7.79283 4.05511 8.20717 4.05511 8.46272 3.83466L11.7908 0.96368C12.2031 0.608058 11.9838 0 11.3281 0Z" fill="#232323"/>
</g>
<defs>
<clipPath id="clip0_2059_15920">
<rect width="16" height="16" fill="white"/>
</clipPath>
</defs>
</svg>
